<svg width="97" height="91" viewBox="0 0 97 91" fill="none" xmlns="http://www.w3.org/2000/svg">
<path d="M7.874 6.579H16.718V7.536H12.857V10.891H11.691V7.536H7.874V6.579ZM8.347 4.973C10.25 4.72 11.537 3.675 11.625 2.597H8.688V1.651H15.893V2.597H12.978C13.066 3.675 14.353 4.72 16.256 4.973L15.816 5.908C14.188 5.666 12.901 4.896 12.307 3.84C11.702 4.896 10.415 5.666 8.787 5.908L8.347 4.973ZM17.4773 6.018H26.3323V6.953H22.6033V8.746H21.4153V6.953H17.4773V6.018ZM18.5553 10.704V7.866H19.7323V9.747H25.3643V10.704H18.5553ZM18.5993 5.083V1.53H25.1993V5.083H18.5993ZM19.7543 4.148H24.0333V2.465H19.7543V4.148ZM31.5245 1.255C33.7135 1.255 35.0225 1.849 35.0225 2.927C35.0225 4.016 33.7135 4.61 31.5245 4.61C29.3245 4.61 28.0265 4.016 28.0265 2.927C28.0265 1.849 29.3245 1.255 31.5245 1.255ZM27.1025 6.095V5.16H35.9355V6.095H27.1025ZM28.1365 7.657V6.766H34.8355V9.142H29.3245V9.901H35.1215V10.803H28.1585V8.317H33.6805V7.657H28.1365ZM29.2475 2.927C29.2475 3.477 30.0395 3.741 31.5245 3.741C33.0095 3.741 33.8015 3.477 33.8015 2.927C33.8015 2.399 33.0095 2.124 31.5245 2.124C30.0395 2.124 29.2475 2.399 29.2475 2.927ZM39.7249 1.992H44.1579V2.949H40.9019V7.536C42.4529 7.525 43.5199 7.47 44.7299 7.25L44.8509 8.207C43.4869 8.46 42.3099 8.515 40.4949 8.515H39.7249V1.992ZM43.6519 5.512V4.555H46.2149V1.101H47.3919V10.902H46.2149V5.512H43.6519ZM58.3313 1.101H59.5193V8.339H58.3313V5.754H56.9563V4.797H58.3313V3.829H56.9563V2.872H58.3313V1.101ZM51.4013 6.062H52.5233V2.784H51.6653V1.827H56.8133V2.784H55.9553V5.93C56.3183 5.908 56.6813 5.875 57.0223 5.831L57.0773 6.7C55.2403 6.997 53.0843 7.041 51.5333 7.041L51.4013 6.062ZM53.1393 10.693V7.778H54.3273V9.736H59.7503V10.693H53.1393ZM53.6673 6.04C54.0523 6.029 54.4373 6.018 54.8223 5.996V2.784H53.6673V6.04ZM67.9126 1.09H69.1006V10.902H67.9126V1.09ZM61.5436 2.916V1.97H66.1196V5.622H62.7536V7.613C64.2936 7.602 65.6136 7.525 67.1316 7.272L67.2526 8.229C65.5916 8.526 64.1396 8.581 62.4016 8.581H61.5546V4.676H64.9206V2.916H61.5436ZM77.0539 1.101H78.2419V5.006H79.7269V5.985H78.2419V10.88H77.0539V1.101ZM70.5749 3.543V2.597H72.8739V1.244H74.0729V2.597H76.3169V3.543H70.5749ZM71.0369 6.502C71.0369 5.16 72.0819 4.214 73.4789 4.214C74.8869 4.214 75.9099 5.16 75.9099 6.502C75.9099 7.855 74.8869 8.801 73.4789 8.801C72.0819 8.801 71.0369 7.855 71.0369 6.502ZM72.1699 6.502C72.1699 7.316 72.7089 7.833 73.4789 7.833C74.2269 7.833 74.7769 7.316 74.7769 6.502C74.7769 5.699 74.2269 5.182 73.4789 5.182C72.7089 5.182 72.1699 5.699 72.1699 6.502ZM87.4821 1.101H88.6151V10.88H87.4821V1.101ZM80.1671 7.976C82.1801 6.777 83.1041 5.226 83.2801 3.246H80.6511V2.289H84.4681C84.4681 3.235 84.3471 4.126 84.0831 4.962H85.4361V1.332H86.5471V10.407H85.4361V5.897H83.6981C83.1371 7.03 82.2241 8.009 80.8491 8.823L80.1671 7.976Z" fill="white"/>
<path d="M4.76562 79H3.76562V80H4.76562V79ZM4.76562 22.4375V21.4375H3.76562V22.4375H4.76562ZM16.4844 68.9219H15.4844V69.9219H16.4844V68.9219ZM16.4844 32.5156V31.5156H15.4844V32.5156H16.4844ZM24.6875 78H4.76562V80H24.6875V78ZM5.76562 79V22.4375H3.76562V79H5.76562ZM4.76562 23.4375H24.9219V21.4375H4.76562V23.4375ZM24.9219 23.4375C33.2262 23.4375 39.802 26.0229 44.3031 30.6449C48.8073 35.2701 51.3438 42.0476 51.3438 50.6406H53.3438C53.3438 41.6555 50.6849 34.3315 45.7359 29.2496C40.7839 24.1646 33.6488 21.4375 24.9219 21.4375V23.4375ZM51.3438 50.6406C51.3438 59.3139 48.8061 66.1291 44.2746 70.7723C39.746 75.4124 33.1126 78 24.6875 78V80C33.5281 80 40.7227 77.2751 45.7059 72.1692C50.6861 67.0662 53.3438 59.7017 53.3438 50.6406H51.3438ZM16.4844 69.9219H24.2188V67.9219H16.4844V69.9219ZM24.2188 69.9219C29.7752 69.9219 34.1917 68.4695 37.2002 65.205C40.1934 61.9571 41.625 57.0948 41.625 50.6406H39.625C39.625 56.8427 38.2441 61.121 35.7295 63.8497C33.2301 66.5617 29.4435 67.9219 24.2188 67.9219V69.9219ZM41.625 50.6406C41.625 44.2242 40.1928 39.4 37.2078 36.1813C34.2087 32.9474 29.8125 31.5156 24.2969 31.5156V33.5156C29.4844 33.5156 33.2522 34.8573 35.7414 37.5413C38.2447 40.2407 39.625 44.4789 39.625 50.6406H41.625ZM24.2969 31.5156H16.4844V33.5156H24.2969V31.5156ZM15.4844 32.5156V68.9219H17.4844V32.5156H15.4844Z" fill="white"/>
<path d="M44.7656 79H43.7656V80H44.7656V79ZM44.7656 22.4375V21.4375H43.7656V22.4375H44.7656ZM56.4844 68.9219H55.4844V69.9219H56.4844V68.9219ZM56.4844 32.5156V31.5156H55.4844V32.5156H56.4844ZM64.6875 78H44.7656V80H64.6875V78ZM45.7656 79V22.4375H43.7656V79H45.7656ZM44.7656 23.4375H64.9219V21.4375H44.7656V23.4375ZM64.9219 23.4375C73.2262 23.4375 79.802 26.0229 84.3031 30.6449C88.8073 35.2701 91.3438 42.0476 91.3438 50.6406H93.3438C93.3438 41.6555 90.6849 34.3315 85.7359 29.2496C80.7839 24.1646 73.6488 21.4375 64.9219 21.4375V23.4375ZM91.3438 50.6406C91.3438 59.3139 88.8061 66.1291 84.2746 70.7723C79.746 75.4124 73.1126 78 64.6875 78V80C73.5281 80 80.7227 77.2751 85.7059 72.1692C90.6861 67.0662 93.3438 59.7017 93.3438 50.6406H91.3438ZM56.4844 69.9219H64.2188V67.9219H56.4844V69.9219ZM64.2188 69.9219C69.7752 69.9219 74.1917 68.4695 77.2002 65.205C80.1934 61.9571 81.625 57.0948 81.625 50.6406H79.625C79.625 56.8427 78.2441 61.121 75.7295 63.8497C73.2301 66.5617 69.4435 67.9219 64.2188 67.9219V69.9219ZM81.625 50.6406C81.625 44.2242 80.1928 39.4 77.2078 36.1813C74.2087 32.9474 69.8125 31.5156 64.2969 31.5156V33.5156C69.4844 33.5156 73.2522 34.8573 75.7414 37.5413C78.2447 40.2407 79.625 44.4789 79.625 50.6406H81.625ZM64.2969 31.5156H56.4844V33.5156H64.2969V31.5156ZM55.4844 32.5156V68.9219H57.4844V32.5156H55.4844Z" fill="white"/>
</svg>
